:SAMPLES-PER-SECOND 30
:FULLY-SPECIFIED
:DEGREES
305
root  5.13907 33.1436 -58.0778 -163.325 5.4765 178.837
RightUpLeg  -65.013 -7.28804 10.8338
RightLeg  52.8258 13.8619 -3.75757
RightFoot  -6.93672 0.23405 -3.95044
RightToes  -1.16415e-010 -3.18055e-015 -2.98177e-016
Spine  39.3866 -2.83458 0.244626
Spine1  -7.12317 -4.41073 6.59013
HEad  -21.2879 2.86386 1.72508
LeftShoulder1  -3.88251e-019 9.70628e-020 -3.87848e-018
LeftArm  -8.92392 17.9603 -67.8448
LeftForeArm  16.7591 -29.4893 7.01975
LeftHand  -5.274 -11.8587 35.4273
RightShoulder  5.2175 9.5258 25.2179
RightArm  23.7278 -50.6743 20.5131
RightForeArm  -5.48024 38.6695 -21.5415
RightHand  -1.76891 3.53223 -22.562
LeftUpLeg  -29.0833 8.23339 -0.094574
LeftLeg  61.9789 -11.9146 4.22711
LeftFoot  -36.208 -2.00584 -9.30504
LeftToes  1.69338e-011 3.79281e-011 -2.20049e-011
306
root  5.33856 33.4894 -58.6722 -162.744 5.49252 178.188
RightUpLeg  -64.1654 -7.28083 10.2278
RightLeg  52.263 13.73 -3.88963
RightFoot  -7.3859 0.246293 -4.47436
RightToes  -1.16415e-010 -3.18055e-015 -2.98177e-016
Spine  38.6827 -3.04547 0.377633
Spine1  -8.00604 -4.54047 7.22145
HEad  -21.2677 2.90344 1.5863
LeftShoulder1  -3.88251e-019 9.70628e-020 -3.87848e-018
LeftArm  -10.5529 19.6175 -67.7112
LeftForeArm  13.6591 -30.6914 7.21767
LeftHand  -5.35954 -11.9087 35.8637
RightShoulder  5.13703 9.43622 24.9302
RightArm  23.5571 -50.1219 19.5078
RightForeArm  -9.03536 40.0082 -22.3602
RightHand  -1.73648 3.24617 -22.8549
LeftUpLeg  -28.2315 7.89255 -0.297038
LeftLeg  60.5799 -12.2897 3.26594
LeftFoot  -33.5951 -1.90506 -10.0061
LeftToes  1.69338e-011 3.79281e-011 -2.20049e-011
307
root  5.52484 33.7402 -59.2139 -162.404 5.49167 177.659
RightUpLeg  -63.423 -7.42796 9.89265
RightLeg  52.0527 13.6948 -3.91604
RightFoot  -8.1769 0.267029 -5.56799
RightToes  -1.16415e-010 -3.18055e-015 -2.98177e-016
Spine  37.9415 -3.21058 0.62905
Spine1  -8.33043 -4.60195 7.72351
HEad  -20.9241 2.57094 0.764771
LeftShoulder1  -3.88251e-019 9.70628e-020 -3.87848e-018
LeftArm  -11.8797 20.8436 -67.231
LeftForeArm  10.3032 -31.6369 7.34301
LeftHand  -5.28393 -11.6394 35.9268
RightShoulder  5.0967 9.35781 24.8495
RightArm  23.2923 -49.2056 18.6012
RightForeArm  -11.7838 40.9347 -22.9318
RightHand  -1.6434 2.77303 -22.8646
LeftUpLeg  -27.2895 7.76186 -0.296288
LeftLeg  59.4436 -12.7799 2.21585
LeftFoot  -31.6482 -1.91033 -11.1326
LeftToes  1.69338e-011 3.79281e-011 -2.20049e-011
308
root  5.71584 33.8683 -59.6995 -162.423 5.64288 176.979
RightUpLeg  -62.7941 -7.48551 9.29492
RightLeg  52.4357 13.6353 -4.04854
RightFoot  -9.12914 0.241719 -6.03847
RightToes  -1.16415e-010 -3.18055e-015 -2.98177e-016
Spine  37.4534 -3.30398 0.572813
Spine1  -8.33364 -4.65597 7.92424
HEad  -20.4871 2.25244 0.06485
LeftShoulder1  -3.88251e-019 9.70628e-020 -3.87848e-018
LeftArm  -12.6417 21.7179 -66.2066
LeftForeArm  7.69884 -32.2196 7.39677
LeftHand  -5.18442 -11.2745 36.0363
RightShoulder  5.11678 9.34378 24.9924
RightArm  22.7411 -48.2109 17.9048
RightForeArm  -12.7733 41.4135 -23.259
RightHand  -1.59224 2.46546 -23.0017
LeftUpLeg  -25.8337 8.16577 -0.473803
LeftLeg  58.0897 -13.2301 1.33285
LeftFoot  -30.923 -2.05097 -12.4803
LeftToes  1.69338e-011 3.79281e-011 -2.20049e-011
309
root  5.89442 33.8496 -60.1148 -162.509 5.73718 176.316
RightUpLeg  -62.5889 -7.55038 8.65197
RightLeg  53.5566 13.619 -4.21116
RightFoot  -10.27 0.179651 -5.82481
RightToes  -1.16415e-010 -3.18055e-015 -2.98177e-016
Spine  37.151 -3.43811 0.573721
Spine1  -8.34817 -4.6773 7.69362
HEad  -20.0631 1.89973 -0.186291
LeftShoulder1  -3.88251e-019 9.70628e-020 -3.87848e-018
LeftArm  -13.0951 22.278 -64.8878
LeftForeArm  6.67696 -32.4286 7.41178
LeftHand  -5.24979 -11.1434 36.7312
RightShoulder  5.1244 9.34756 25.029
RightArm  21.8419 -47.652 17.4944
RightForeArm  -12.7017 41.5267 -23.355
RightHand  -1.62112 2.50541 -23.2935
LeftUpLeg  -24.2678 8.83394 -0.743054
LeftLeg  56.694 -13.5328 0.794971
LeftFoot  -31.417 -2.21004 -13.116
LeftToes  1.69338e-011 3.79281e-011 -2.20049e-011
